<?xml version="1.0" encoding="UTF-8" standalone="no"?>
<!DOCTYPE svg PUBLIC "-//W3C//DTD SVG 1.1//EN" "http://www.w3.org/Graphics/SVG/1.1/DTD/svg11.dtd">
<svg width="100%" height="100%" viewBox="0 0 512 512" version="1.1" xmlns="http://www.w3.org/2000/svg" xmlns:xlink="http://www.w3.org/1999/xlink" xml:space="preserve" xmlns:serif="http://www.serif.com/" style="fill-rule:evenodd;clip-rule:evenodd;stroke-linejoin:round;stroke-miterlimit:2;">
    <g transform="matrix(1.12281,0,0,1.12281,-43.7895,-59.5088)">
        <circle cx="267" cy="281" r="228" style="fill:rgb(241,242,255);"/>
    </g>
    <g>
        <path d="M342.734,312.574L199.426,169.266C193.168,163.008 183.039,163.008 176.801,169.266L169.266,176.801C163.008,183.055 163.008,193.184 169.266,199.426L312.574,342.734C318.832,348.992 328.961,348.992 335.199,342.734L342.734,335.199C348.992,328.945 348.992,318.816 342.734,312.574Z" style="fill:rgb(208,212,246);fill-rule:nonzero;"/>
        <path d="M312.574,169.266L169.266,312.574C163.008,318.832 163.008,328.961 169.266,335.199L176.801,342.734C183.055,348.992 193.184,348.992 199.426,342.734L342.734,199.426C348.992,193.168 348.992,183.039 342.734,176.801L335.199,169.266C328.945,163.008 318.816,163.008 312.574,169.266Z" style="fill:rgb(208,212,246);fill-rule:nonzero;"/>
    </g>
</svg>
